<svg version="1.1" xmlns="http://www.w3.org/2000/svg" style="display: block;" viewBox="0 0 2048 2048" width="1254" height="1254" preserveAspectRatio="none">
<path transform="translate(0,0)" fill="rgb(255,255,255)" d="M 0 0 L 2048 0 L 2048 2048 L 0 2048 L 0 0 z"/>
<path transform="translate(0,0)" fill="rgb(234,234,235)" d="M 1006.74 110.5 C 1011.08 110.152 1014.64 110.186 1018.93 110.112 C 1250.23 106.004 1474.66 191.2 1639.42 354.056 C 1991.46 702.012 2008.35 1310.6 1655.33 1664.2 C 1493.08 1826.7 1272.72 1934.44 1040.82 1936.03 C 813.055 1935.31 594.077 1848.03 428.266 1691.87 C 248.954 1527.29 143.788 1297.2 136.667 1053.91 C 129.284 809.56 218.115 572.077 384.046 392.555 C 545.577 219.102 769.82 117.528 1006.74 110.5 z"/>
<path transform="translate(0,0)" fill="rgb(255,255,255)" d="M 1001.64 120.436 C 1003.56 120.319 1005.49 120.23 1007.43 120.166 C 1516.51 106.032 1888.39 505.903 1902.37 1003.28 C 1909.82 1242.38 1821.44 1474.56 1656.87 1648.17 C 1499.87 1813.79 1276.94 1920.03 1047.75 1926.06 C 829.149 1931.65 608.491 1840.29 446.743 1695.35 C 268.511 1537.63 160.821 1315.13 147.697 1077.5 C 133.974 834.405 216.922 595.743 378.454 413.557 C 543.109 230.331 756.845 133.698 1001.64 120.436 z"/>
<path transform="translate(0,0)" fill="rgb(10,40,79)" d="M 1135.53 546.951 L 1136.5 547.166 C 1138.16 551.491 1133.65 574.924 1132.67 581.027 C 1190.3 596.27 1254.15 610.519 1312.51 624.428 C 1315.73 605.384 1318.39 588.074 1322.87 569.247 C 1342.72 574.23 1375.86 579.884 1393.35 588.402 C 1344.22 594.289 1325.22 631.656 1303.59 670.077 L 1267.15 734.569 L 1128.5 979.384 C 1111.78 1009.83 1101.2 1019.1 1100.18 1054.13 C 1093.9 1053.81 1087.66 1052.98 1081.51 1051.64 C 1066.28 1048.34 1050.67 1043.65 1035.55 1039.61 C 998.035 1029.58 960.52 1019.34 923.07 1009.07 C 918.439 1007.8 911.009 1005.78 906.728 1003.63 C 881.173 990.842 880.103 957.666 892.466 935.118 C 909.427 903.604 926.091 872.143 943.083 840.741 L 1027.69 685.031 L 1063.74 619.343 C 1083.83 582.736 1093.01 561.071 1135.53 546.951 z"/>
<path transform="translate(0,0)" fill="rgb(234,234,235)" d="M 1108.2 612.707 C 1118.09 612.568 1260.97 648.096 1269.1 652.245 C 1269.34 653.577 1269.43 653.705 1269.3 655.275 C 1268.58 664.303 1212.26 762.296 1204.42 773.881 C 1203.11 775.826 1201.46 777.324 1199.61 778.735 C 1196.54 779.143 1194.12 779.319 1191.04 778.595 C 1152.8 769.56 1114.91 758.961 1076.73 749.628 C 1065.14 746.796 1049.94 743.655 1039.43 738.253 C 1038.55 736.353 1038.64 737.261 1039.11 734.982 C 1040.85 726.431 1095.7 626.495 1103.03 616.931 C 1104.4 615.136 1106.3 613.879 1108.2 612.707 z"/>
<path transform="translate(0,0)" fill="rgb(234,234,235)" d="M 932.066 929.94 C 939.928 928.879 1026.56 951.908 1028.81 957.981 C 1027.99 966.987 1019.53 981.742 1014.2 989.05 C 1003.6 989.959 927.445 969.424 917.696 963.668 C 914.517 957.134 927.363 935.417 932.066 929.94 z"/>
<path transform="translate(0,0)" fill="rgb(0,95,206)" d="M 1045.81 960.816 C 1052.91 960.229 1081 967.454 1087.08 971.628 C 1090.85 978.963 1077.24 1001.36 1071.22 1006.06 C 1062.66 1005.61 1041.37 1000.8 1033.7 997.03 C 1022.01 991.282 1040.28 966.923 1045.81 960.816 z"/>
<path transform="translate(0,0)" fill="rgb(234,234,235)" d="M 1105.92 854.805 C 1112.33 855.015 1137.68 861.502 1143.88 864.687 C 1146.9 866.237 1147.04 867.079 1147.84 869.699 C 1146.89 876.257 1136.05 895.233 1130.29 899.893 C 1121.46 899.784 1099.3 893.436 1090.93 889.632 C 1082.41 885.761 1101.11 858.834 1105.92 854.805 z"/>
<path transform="translate(0,0)" fill="rgb(234,234,235)" d="M 1134.82 802.693 C 1141.99 802.673 1172.5 809.703 1176.65 814.402 C 1178.45 822.221 1165.84 842.673 1159.41 847.265 C 1150.95 846.724 1120.06 840.69 1117.41 832.831 C 1118.49 826.588 1129.77 807.207 1134.82 802.693 z"/>
<path transform="translate(0,0)" fill="rgb(234,234,235)" d="M 1075.84 907.663 C 1083.95 907.607 1108.25 914.407 1115.48 917.616 C 1123.44 921.143 1105.41 948.528 1101.21 952.234 C 1093.67 952.391 1065.67 945.765 1059.97 940.974 C 1055.11 936.892 1071.51 911.18 1075.84 907.663 z"/>
<path transform="translate(0,0)" fill="rgb(234,234,235)" d="M 1078.02 786.862 C 1087.35 788.898 1110.82 793.116 1117.24 798.516 C 1119.84 804.63 1105.75 828.053 1099.3 831.796 C 1091.09 830.671 1066.14 824.957 1060 820.294 C 1057.2 813.521 1071.23 791.025 1078.02 786.862 z"/>
<path transform="translate(0,0)" fill="rgb(234,234,235)" d="M 1046.89 839.992 C 1054.57 839.101 1078.98 846.046 1086.4 849.156 C 1093.77 852.251 1076.2 879.348 1072.39 883.483 C 1065.25 884.739 1040.1 877.29 1033.09 873.946 C 1025.87 870.504 1042.82 843.825 1046.89 839.992 z"/>
<path transform="translate(0,0)" fill="rgb(234,234,235)" d="M 1018.83 891.935 C 1026.59 892.517 1052.4 898.687 1058.4 903.213 C 1060.39 909.843 1047.53 932.844 1041.52 936.512 C 1036.44 935.883 998.633 929.038 1001.55 921.42 C 1004.58 913.488 1012.18 897.256 1018.83 891.935 z"/>
<path transform="translate(0,0)" fill="rgb(234,234,235)" d="M 989.079 825.054 C 997.814 823.789 1018.75 830.583 1027.37 833.509 C 1036.77 836.697 1019.12 863.952 1014.94 867.963 C 1005.82 869.057 986.053 862.23 976.57 859.527 C 967.184 856.851 985.544 829.219 989.079 825.054 z"/>
<path transform="translate(0,0)" fill="rgb(234,234,235)" d="M 1019.92 771.954 C 1026.95 772.663 1055.38 779.173 1058.82 783.864 C 1059.77 791.18 1047.99 812.548 1041.25 816.413 C 1033.6 815.434 1008.07 809.792 1002.57 805.132 C 1000.34 798.15 1013.75 775.974 1019.92 771.954 z"/>
<path transform="translate(0,0)" fill="rgb(234,234,235)" d="M 961.054 876.897 C 968.884 876.522 998.677 882.803 1001.93 890.266 C 1001.44 896.428 990.69 916.252 985.633 920.625 C 978.9 921.578 960.852 915.276 953.161 913.619 C 949.261 912.778 946.92 911.519 945.085 908.125 C 945.741 900.672 955.889 882.253 961.054 876.897 z"/>
<path transform="translate(0,0)" fill="rgb(0,95,206)" d="M 1399.46 780.707 C 1401.54 790.74 1393.82 831.62 1390.95 843.038 C 1350.69 1002.95 1226.87 1145.96 1089.94 1232.21 C 946.281 1322.7 803.645 1335.62 640.764 1297.9 C 631.961 1295.5 623.122 1293.23 614.249 1291.1 C 638.196 1290.87 658.56 1292.57 683.401 1290.13 C 770.579 1281.54 861.421 1251.27 940.712 1215.45 C 1076.81 1153.98 1201.57 1068.4 1296.52 952.214 C 1340.99 897.789 1374.42 846.57 1399.46 780.707 z"/>
<path transform="translate(0,0)" fill="rgb(10,40,79)" d="M 937.603 808.037 C 937.722 810.932 931.42 817.959 929.392 820.828 C 894.891 869.629 853.052 912.326 813.889 957.301 C 800.967 972.18 788.343 987.316 776.023 1002.7 C 747.278 1039.14 675.246 1135.01 758.56 1157.39 C 774.815 1160.88 794.257 1161.23 810.913 1159.47 C 876.924 1152.49 942.21 1133.3 1005.52 1113.98 C 1025.29 1107.95 1046.53 1101.51 1065.25 1093.97 C 1017.65 1124.44 975.438 1146.31 924.252 1169.5 C 855.54 1200.01 746.064 1239.84 669.988 1238.92 C 646.39 1238.64 620.29 1234.75 603.36 1216.66 C 591.568 1204.06 588.016 1188.17 588.733 1171.45 C 592.608 1080.98 750.283 963.663 817.959 908.677 C 858.398 875.82 899.036 843.103 937.603 808.037 z"/>
<path transform="translate(0,0)" fill="rgb(10,40,79)" d="M 1389.83 609.166 C 1445.96 605.638 1413.57 695.147 1399.38 720.183 C 1366.04 779.001 1325.43 834.561 1284 887.932 C 1250.67 930.87 1213.84 977.124 1174.21 1014.14 C 1164.47 1023.32 1153.96 1031.65 1142.8 1039.05 C 1135.08 1043.64 1129.27 1046.1 1120.94 1049.28 C 1121.01 1024.42 1135.98 1006.18 1147.99 985.235 L 1189.14 912.383 L 1332.13 660.765 C 1345.62 637.132 1362.43 616.655 1389.83 609.166 z"/>
<path transform="translate(0,0)" fill="rgb(196,200,208)" d="M 1431.5 781.186 C 1436.97 814.667 1440.27 844.244 1438.82 878.408 C 1434.68 975.668 1391.67 1071.19 1335.87 1149.52 C 1306.33 1190.98 1259.45 1241.73 1216.31 1269.19 C 1184.45 1289.47 1130.64 1307.73 1093.5 1313.4 C 1074.16 1316.36 1057.1 1317.79 1037.49 1318.97 C 1067.05 1304.13 1093.62 1290.23 1121.4 1271.1 C 1245.59 1185.57 1356.04 1058 1406.09 914.274 C 1420.2 873.735 1426.37 833.833 1429.25 791.56 C 1430.21 786.99 1429.25 786.016 1431.5 781.186 z"/>
<path transform="translate(0,0)" fill="rgb(0,95,206)" d="M 1427.26 1380.41 C 1448.79 1378.94 1474 1382.7 1491.24 1397.03 C 1518.56 1419.74 1519.57 1469.05 1497.07 1495.39 C 1484.04 1510.64 1464.75 1516.54 1445.25 1518.05 C 1402.87 1519.41 1361.63 1509.12 1356.48 1460.36 C 1351.07 1409.21 1379.72 1384.56 1427.26 1380.41 z"/>
<path transform="translate(0,0)" fill="rgb(255,255,255)" d="M 1434.19 1408.42 C 1444.89 1408.65 1454.23 1409.23 1463.5 1415.81 C 1481.5 1428.59 1482.74 1460.36 1469.28 1476.75 C 1460.38 1487.59 1448.82 1488.82 1435.75 1490.01 C 1424.2 1489.81 1412.67 1488.43 1403.18 1480.74 C 1387.06 1467.67 1386.04 1437.05 1399.19 1421.57 C 1408.54 1410.56 1420.64 1409.2 1434.19 1408.42 z"/>
<path transform="translate(0,0)" fill="rgb(10,40,79)" d="M 764.757 1383.04 L 803.561 1382.99 C 822.164 1408.62 841.218 1433.92 860.714 1458.88 C 879.063 1434.32 900.621 1406.82 919.845 1383.02 L 957.082 1383.04 L 957.072 1515.8 L 922.619 1515.91 C 922.469 1499.29 922.451 1482.68 922.567 1466.06 L 922.332 1432.21 C 901.315 1458.55 880.616 1485.14 860.24 1511.98 C 839.613 1485 818.807 1458.17 797.822 1431.47 L 797.817 1515.84 L 764.742 1515.98 L 764.757 1383.04 z"/>
<path transform="translate(0,0)" fill="rgb(10,40,79)" d="M 517.912 1383.09 L 551.696 1382.94 L 551.671 1514.66 C 549.186 1516.87 521.443 1515.96 516.271 1515.94 C 487.868 1487.7 460.646 1458.48 432.17 1430.43 L 432.055 1515.88 L 398.932 1515.95 L 398.975 1383.06 L 432.305 1382.98 C 459.19 1408.87 491.582 1444.18 517.872 1471.56 L 517.912 1383.09 z"/>
<path transform="translate(0,0)" fill="rgb(10,40,79)" d="M 1047.37 1383.13 C 1058.97 1382.66 1073.17 1383.03 1084.98 1383.02 L 1153.99 1515.88 L 1115 1515.98 L 1102.76 1491.06 L 1083.96 1491.09 L 1027.14 1491.06 L 1014.71 1515.92 L 976.077 1515.89 C 985.051 1497.65 996.351 1477.66 1006.1 1459.53 C 1019.64 1433.95 1033.4 1408.48 1047.37 1383.13 z"/>
<path transform="translate(0,0)" fill="rgb(255,255,255)" d="M 1064.66 1416.59 C 1068.21 1419.36 1086.44 1458.16 1089.75 1464.99 L 1065.33 1464.94 L 1040.69 1464.86 L 1064.66 1416.59 z"/>
<path transform="translate(0,0)" fill="rgb(0,95,206)" d="M 1221.64 1383.13 C 1245.65 1382.75 1304.77 1379.25 1322.84 1390.27 C 1357.98 1411.71 1351.02 1465.05 1305.86 1475.72 C 1294.9 1477.77 1267.6 1477.11 1255.06 1477.08 L 1255 1515.77 L 1221.65 1515.95 C 1221.07 1472.18 1221.61 1427 1221.64 1383.13 z"/>
<path transform="translate(0,0)" fill="rgb(255,255,255)" d="M 1255.06 1410.78 C 1268.21 1410.75 1292.02 1408.31 1303.05 1414.86 C 1313 1420.76 1311.97 1435.23 1305.88 1444.31 C 1294.36 1453.25 1269.8 1450.47 1255.04 1450.19 L 1255.06 1410.78 z"/>
<path transform="translate(0,0)" fill="rgb(10,40,79)" d="M 582.998 1383.13 C 594.683 1382.96 606.611 1383.04 618.318 1383.01 L 618.127 1435.05 C 618.081 1463.32 614.724 1488.15 652.454 1489.64 C 664.791 1490.13 680.733 1489.79 690.223 1481.02 C 701.702 1470.41 699.004 1447.99 698.993 1433.53 L 698.993 1383.15 C 710.503 1382.94 722.389 1383.05 733.931 1383 L 733.948 1412.91 C 734.286 1476.29 742.574 1518.15 658.238 1518.6 C 631.729 1518.74 590.018 1511.99 585.05 1479.08 C 580.646 1449.91 582.873 1413.2 582.998 1383.13 z"/>
<path transform="translate(0,0)" fill="rgb(0,95,206)" d="M 1578.97 1380.41 C 1598.27 1379.19 1615.82 1382.78 1634.03 1388.6 L 1633.99 1417.76 C 1619.48 1412.11 1605.62 1408.56 1589.22 1408.09 C 1581.7 1407.87 1557.34 1406.93 1559.09 1422.03 C 1560.58 1429.56 1573.42 1431.94 1579.28 1432.76 C 1603.95 1436.24 1641.68 1438.08 1643.3 1471.09 C 1645.24 1510.74 1611.72 1517.78 1580.22 1518.21 C 1559.88 1518.18 1546.03 1515.39 1527.04 1508.74 L 1527.1 1477.61 C 1547.35 1486.14 1583.93 1497.53 1606.39 1485.03 C 1608.28 1483.98 1611.72 1477.98 1610.89 1476.04 C 1603.88 1459.88 1574.91 1464.16 1560.44 1459.24 C 1543.08 1455.01 1526.59 1446.91 1525.7 1426.66 C 1524.21 1392.37 1550.11 1383.06 1578.97 1380.41 z"/>
<path transform="translate(0,0)" fill="rgb(196,200,208)" d="M 1190.14 480.653 C 1198.31 479.882 1285.44 502.035 1301.48 506.587 C 1303.37 507.124 1303.88 509.76 1304.42 511.534 C 1303.65 515.6 1302.84 516.008 1299.9 519.222 C 1282.16 517.849 1210.15 497.524 1188.72 492.525 C 1187.05 492.136 1186.58 489.593 1186.16 488.023 C 1186.71 484.464 1187.92 483.473 1190.14 480.653 z"/>
<path transform="translate(0,0)" fill="rgb(196,200,208)" d="M 1176.21 525.895 C 1205.22 527.49 1255.61 545.796 1285.53 551.527 C 1291.09 552.592 1287.37 561.327 1284.62 564.659 C 1276.41 563.825 1247.81 556.461 1237.38 553.816 C 1218.09 548.927 1193.41 544.4 1174.81 538.913 C 1171.8 535.773 1172.73 537.56 1171.79 533.425 C 1172.67 529.472 1173.41 529.069 1176.21 525.895 z"/>
<path transform="translate(0,0)" fill="rgb(234,234,235)" d="M 1429.25 791.56 C 1429.14 785.914 1428.71 777.815 1429.48 772.495 C 1431.13 774.995 1431.13 778.102 1431.5 781.186 C 1429.25 786.016 1430.21 786.99 1429.25 791.56 z"/>
</svg>